<svg width="20" height="20" viewBox="0 0 20 20" fill="none" xmlns="http://www.w3.org/2000/svg">
<g clip-path="url(#clip0)">
<path d="M12.0001 3.32493H14.0001V4.65618C13.9911 4.74901 14.0016 4.8427 14.0309 4.93122C14.0603 5.01975 14.1078 5.10116 14.1705 5.17022C14.2332 5.23928 14.3096 5.29446 14.3949 5.33223C14.4802 5.36999 14.5724 5.3895 14.6657 5.3895C14.759 5.3895 14.8512 5.36999 14.9365 5.33223C15.0217 5.29446 15.0982 5.23928 15.1609 5.17022C15.2236 5.10116 15.2711 5.01975 15.3005 4.93122C15.3298 4.8427 15.3403 4.74901 15.3313 4.65618V0.968676C15.3403 0.875846 15.3298 0.782157 15.3005 0.69363C15.2711 0.605103 15.2236 0.523694 15.1609 0.454634C15.0982 0.385574 15.0217 0.330389 14.9365 0.292625C14.8512 0.25486 14.759 0.235352 14.6657 0.235352C14.5724 0.235352 14.4802 0.25486 14.3949 0.292625C14.3096 0.330389 14.2332 0.385574 14.1705 0.454634C14.1078 0.523694 14.0603 0.605103 14.0309 0.69363C14.0016 0.782157 13.9911 0.875846 14.0001 0.968676V1.98743H12.0001C11.9072 1.97842 11.8135 1.98893 11.725 2.01829C11.6365 2.04764 11.5551 2.09518 11.486 2.15787C11.4169 2.22055 11.3618 2.29699 11.324 2.38227C11.2862 2.46755 11.2667 2.55978 11.2667 2.65305C11.2667 2.74632 11.2862 2.83855 11.324 2.92383C11.3618 3.00911 11.4169 3.08555 11.486 3.14823C11.5551 3.21092 11.6365 3.25846 11.725 3.28782C11.8135 3.31717 11.9072 3.32768 12.0001 3.31868V3.32493Z" fill="#FCCF00"/>
<path d="M7.33122 3.32517H9.33122V4.65642C9.34726 4.82183 9.42432 4.97534 9.54737 5.08703C9.67042 5.19872 9.83065 5.2606 9.99684 5.2606C10.163 5.2606 10.3233 5.19872 10.4463 5.08703C10.5694 4.97534 10.6464 4.82183 10.6625 4.65642V0.968921C10.6464 0.803514 10.5694 0.650006 10.4463 0.538314C10.3233 0.426621 10.163 0.364746 9.99684 0.364746C9.83065 0.364746 9.67042 0.426621 9.54737 0.538314C9.42432 0.650006 9.34726 0.803514 9.33122 0.968921V1.98767H7.33122C7.16582 2.00372 7.01231 2.08078 6.90062 2.20383C6.78893 2.32688 6.72705 2.48711 6.72705 2.6533C6.72705 2.81948 6.78893 2.97971 6.90062 3.10276C7.01231 3.22582 7.16582 3.30287 7.33122 3.31892V3.32517Z" fill="#FCCF00"/>
<path d="M17.3313 1.98743H16.6688C16.5759 1.97842 16.4822 1.98893 16.3937 2.01829C16.3052 2.04764 16.2238 2.09518 16.1547 2.15787C16.0857 2.22055 16.0305 2.29699 15.9927 2.38227C15.9549 2.46755 15.9354 2.55978 15.9354 2.65305C15.9354 2.74632 15.9549 2.83855 15.9927 2.92383C16.0305 3.00911 16.0857 3.08555 16.1547 3.14823C16.2238 3.21092 16.3052 3.25846 16.3937 3.28782C16.4822 3.31717 16.5759 3.32768 16.6688 3.31868H17.3375C17.6901 3.32032 18.0277 3.4611 18.277 3.71041C18.5263 3.95971 18.6671 4.29736 18.6688 4.64993V6.64993H1.33126V4.65618C1.33291 4.30253 1.47455 3.96394 1.7252 3.71446C1.97586 3.46498 2.31511 3.32492 2.66876 3.32493H4.66876V4.65618C4.65975 4.74901 4.67026 4.8427 4.69962 4.93122C4.72897 5.01975 4.77652 5.10116 4.8392 5.17022C4.90188 5.23928 4.97832 5.29446 5.0636 5.33223C5.14888 5.36999 5.24112 5.3895 5.33438 5.3895C5.42765 5.3895 5.51988 5.36999 5.60516 5.33223C5.69044 5.29446 5.76688 5.23928 5.82956 5.17022C5.89225 5.10116 5.9398 5.01975 5.96915 4.93122C5.9985 4.8427 6.00901 4.74901 6.00001 4.65618V0.968676C6.00901 0.875846 5.9985 0.782157 5.96915 0.69363C5.9398 0.605103 5.89225 0.523694 5.82956 0.454634C5.76688 0.385574 5.69044 0.330389 5.60516 0.292625C5.51988 0.25486 5.42765 0.235352 5.33438 0.235352C5.24112 0.235352 5.14888 0.25486 5.0636 0.292625C4.97832 0.330389 4.90188 0.385574 4.8392 0.454634C4.77652 0.523694 4.72897 0.605103 4.69962 0.69363C4.67026 0.782157 4.65975 0.875846 4.66876 0.968676V1.98743H2.66876C1.96096 1.98743 1.28215 2.2686 0.781666 2.76909C0.281178 3.26957 7.31917e-06 3.94838 7.31917e-06 4.65618V17.3249C-0.000814676 17.6759 0.067608 18.0236 0.201357 18.3481C0.335106 18.6726 0.531555 18.9676 0.779453 19.2161C1.02735 19.4645 1.32183 19.6617 1.64603 19.7962C1.97022 19.9307 2.31777 19.9999 2.66876 19.9999H17.3313C17.6822 19.9999 18.0298 19.9307 18.354 19.7962C18.6782 19.6617 18.9727 19.4645 19.2206 19.2161C19.4685 18.9676 19.6649 18.6726 19.7987 18.3481C19.9324 18.0236 20.0008 17.6759 20 17.3249V4.65618C20 3.94838 19.7188 3.26957 19.2183 2.76909C18.7179 2.2686 18.0391 1.98743 17.3313 1.98743ZM17.3313 18.6562H2.66876C2.31619 18.6545 1.97854 18.5137 1.72924 18.2644C1.47994 18.0151 1.33915 17.6775 1.33751 17.3249V7.99368H18.6688V17.3249C18.6671 17.6786 18.5255 18.0172 18.2748 18.2666C18.0242 18.5161 17.6849 18.6562 17.3313 18.6562Z" fill="#FCCF00"/>
</g>
<defs>
<clipPath id="clip0">
<rect width="20" height="20" fill="white"/>
</clipPath>
</defs>
</svg>
