<svg width="120" height="120" viewBox="0 0 120 120" fill="none" xmlns="http://www.w3.org/2000/svg">
<path d="M60 120C93.1371 120 120 93.1371 120 60C120 26.8629 93.1371 0 60 0C26.8629 0 0 26.8629 0 60C0 93.1371 26.8629 120 60 120Z" fill="#FCCF00"/>
<path d="M60 105.492C85.1246 105.492 105.492 85.1246 105.492 60C105.492 34.8754 85.1246 14.5078 60 14.5078C34.8754 14.5078 14.5078 34.8754 14.5078 60C14.5078 85.1246 34.8754 105.492 60 105.492Z" fill="#F8B64C"/>
<path d="M61.2656 3H58.7578V11.5078H61.2656V3Z" fill="#F8B64C"/>
<path d="M61.2656 108.492H58.7578V117H61.2656V108.492Z" fill="#F8B64C"/>
<path d="M41.7117 6.03662L39.3551 6.89429L42.2648 14.8891L44.6214 14.0314L41.7117 6.03662Z" fill="#F8B64C"/>
<path d="M77.7376 105.111L75.381 105.969L78.2907 113.963L80.6472 113.106L77.7376 105.111Z" fill="#F8B64C"/>
<path d="M24.3763 15.418L22.4553 17.03L27.9241 23.547L29.8451 21.935L24.3763 15.418Z" fill="#F8B64C"/>
<path d="M91.9128 96.2613L89.9918 97.8733L95.4606 104.39L97.3816 102.778L91.9128 96.2613Z" fill="#F8B64C"/>
<path d="M11.2448 30.2911L9.99084 32.4629L17.3586 36.7168L18.6125 34.545L11.2448 30.2911Z" fill="#F8B64C"/>
<path d="M102.44 83.1351L101.186 85.3069L108.554 89.5608L109.808 87.389L102.44 83.1351Z" fill="#F8B64C"/>
<path d="M4.00201 48.9563L3.56641 51.426L11.9449 52.9038L12.3805 50.4341L4.00201 48.9563Z" fill="#F8B64C"/>
<path d="M107.847 67.0494L107.411 69.519L115.79 70.9969L116.225 68.5272L107.847 67.0494Z" fill="#F8B64C"/>
<path d="M11.9278 67.1079L3.54932 68.5857L3.98492 71.0554L12.3634 69.5776L11.9278 67.1079Z" fill="#F8B64C"/>
<path d="M115.759 49.0149L107.381 50.4927L107.816 52.9624L116.195 51.4846L115.759 49.0149Z" fill="#F8B64C"/>
<path d="M17.3709 83.2764L10.0032 87.5303L11.2571 89.702L18.6248 85.4481L17.3709 83.2764Z" fill="#F8B64C"/>
<path d="M108.538 30.4248L101.17 34.6787L102.424 36.8505L109.792 32.5966L108.538 30.4248Z" fill="#F8B64C"/>
<path d="M27.9245 96.4637L22.4557 102.981L24.3767 104.593L29.8455 98.0758L27.9245 96.4637Z" fill="#F8B64C"/>
<path d="M95.4752 15.6119L90.0063 22.1289L91.9273 23.7409L97.3962 17.2239L95.4752 15.6119Z" fill="#F8B64C"/>
<path d="M42.2763 105.118L39.3666 113.113L41.7232 113.971L44.6328 105.976L42.2763 105.118Z" fill="#F8B64C"/>
<path d="M78.301 6.02449L75.3914 14.0193L77.748 14.877L80.6576 6.88216L78.301 6.02449Z" fill="#F8B64C"/>
</svg>
