<svg width="60" height="60" viewBox="0 0 60 60" fill="none" xmlns="http://www.w3.org/2000/svg">
<g clip-path="url(#clip0)">
<path d="M8.95 52.99H44.5975L42.895 47.4775L46.9675 50.9725L50.7 54.3175L57.5 60V6.1875C57.33 2.8425 54.45 0 50.88 0L8.9625 0.0075C5.395 0.0075 2.5 2.855 2.5 6.2V46.8C2.5 50.3275 5.39 52.99 8.95 52.99ZM35.32 14.2075L35.2375 14.2375L35.2675 14.2075H35.32ZM16.2425 17.38C20.825 14.045 25.0725 14.205 25.0725 14.205L25.415 14.5425C19.8075 15.88 17.265 18.385 17.265 18.385C17.265 18.385 17.945 18.0525 19.1325 17.545C26.685 14.575 34.9325 14.79 42.5675 18.55C42.5675 18.55 40.02 16.2075 34.7575 14.7075L35.2225 14.25C35.95 14.2525 39.8 14.3875 43.92 17.4C43.92 17.4 48.53 25.275 48.53 34.95C48.3775 34.765 45.67 39.115 38.7025 39.265C38.7025 39.265 37.5225 37.93 36.6825 36.765C40.7575 35.595 42.2825 33.255 42.2825 33.255C40.945 34.0975 39.725 34.5975 38.735 35.0975C37.2125 35.7675 35.6875 36.0975 34.165 36.435C26.955 37.605 22.9075 35.6475 19.0825 34.095L17.775 33.43C17.775 33.43 19.2975 35.77 23.21 36.94C22.1825 38.1125 21.165 39.445 21.165 39.445C14.2 39.28 11.66 34.93 11.66 34.93C11.66 25.24 16.2425 17.38 16.2425 17.38Z" fill="white"/>
<path d="M35.77 31.9275C37.5475 31.9275 38.995 30.4275 38.995 28.5775C38.995 26.74 37.555 25.24 35.77 25.24V25.2475C34 25.2475 32.55 26.7425 32.545 28.5925C32.545 30.4275 33.9925 31.9275 35.77 31.9275Z" fill="white"/>
<path d="M24.225 31.9275C26.0025 31.9275 27.45 30.4275 27.45 28.5775C27.45 26.74 26.0125 25.24 24.235 25.24L24.225 25.2475C22.4475 25.2475 21 26.7425 21 28.5925C21 30.4275 22.4475 31.9275 24.225 31.9275Z" fill="white"/>
</g>
<defs>
<clipPath id="clip0">
<rect width="60" height="60" fill="white"/>
</clipPath>
</defs>
</svg>
