<svg width="360" height="360" viewBox="0 0 360 360" fill="none" xmlns="http://www.w3.org/2000/svg">
<rect width="360" height="360" fill="#FCCF00"/>
<path d="M180 134.683C132.49 135.372 99.1723 172.305 90.9091 182.447C89.697 183.935 89.697 186.065 90.9091 187.553C99.1723 197.695 132.49 234.628 180 235.317C227.51 234.628 260.828 197.695 269.091 187.553C270.303 186.065 270.303 183.935 269.091 182.447C260.828 172.305 227.51 135.372 180 134.683Z" fill="white"/>
<path d="M180 145.85C141.813 146.386 115.034 175.123 108.393 183.014C107.419 184.172 107.419 185.829 108.393 186.986C115.034 194.878 141.813 223.614 180 224.15C218.187 223.614 244.966 194.878 251.607 186.986C252.581 185.829 252.581 184.172 251.607 183.014C244.966 175.123 218.187 146.386 180 145.85Z" fill="white"/>
<path d="M180 224.15C201.622 224.15 219.15 206.622 219.15 185C219.15 163.378 201.622 145.85 180 145.85C158.378 145.85 140.85 163.378 140.85 185C140.85 206.622 158.378 224.15 180 224.15Z" fill="#424449"/>
<path d="M180 211.033C194.378 211.033 206.033 199.378 206.033 185C206.033 170.622 194.378 158.967 180 158.967C165.622 158.967 153.967 170.622 153.967 185C153.967 199.378 165.622 211.033 180 211.033Z" fill="#141414"/>
<path d="M113.275 235.723C112.057 240.149 108.347 248.425 97.2411 252.844C96.7293 253.047 96.7293 253.763 97.2411 253.967C108.347 258.386 112.057 266.661 113.275 271.087C113.437 271.677 114.27 271.677 114.432 271.087C115.649 266.661 119.359 258.385 130.465 253.967C130.977 253.763 130.977 253.047 130.465 252.844C119.359 248.425 115.65 240.149 114.432 235.723C114.27 235.134 113.437 235.134 113.275 235.723Z" fill="#1366EA"/>
<path d="M241.614 99.0124C240.123 104.434 235.579 114.572 221.974 119.984C221.348 120.234 221.348 121.111 221.974 121.36C235.579 126.772 240.123 136.91 241.614 142.332C241.813 143.054 242.834 143.054 243.032 142.332C244.524 136.91 249.068 126.772 262.672 121.36C263.299 121.11 263.299 120.234 262.672 119.984C249.068 114.572 244.524 104.434 243.032 99.0124C242.834 98.2899 241.813 98.2899 241.614 99.0124Z" fill="#1366EA"/>
</svg>
