<svg width="100" height="100" viewBox="0 0 100 100" fill="none" xmlns="http://www.w3.org/2000/svg">
<g clip-path="url(#clip0)">
<path d="M80.469 56.7406L80.0593 55.8662L79.8862 53.8947L45.0774 31.4601L43.1253 30.1812L42.5919 29.9814C40.6956 29.2708 38.7026 28.8517 36.6807 28.7382L31.1563 28.4279C30.4327 28.3873 29.7069 28.3783 28.9839 28.4248C27.68 28.5085 26.3708 28.2906 25.1594 27.7837L21.1596 26.1101L20.0485 26.8998L10.8368 49.7699L11.3497 50.9751L19.1048 55.866L21.5591 57.591L23.1122 57.6255L47.3241 74.7195L47.5538 76.2908L50.8845 78.7488C52.7341 80.1138 55.3407 79.9572 56.929 78.2953C58.4747 76.6781 58.5667 74.2433 57.3311 72.5269L59.0012 73.7595C60.9057 75.1652 63.6034 74.9494 65.1688 73.174C66.6852 71.4544 66.6468 68.9312 65.2309 67.2599L66.169 67.9521C67.9852 69.2923 70.5376 69.1709 72.1354 67.5767C73.8343 65.882 73.8792 63.2267 72.4182 61.4767L73.8268 62.5164C75.7958 63.9695 78.5684 63.5964 80.0815 61.6603C81.2163 60.2082 81.2852 58.2777 80.469 56.7406Z" fill="#EBC997"/>
<path d="M0.110169 46.8474L10.4283 20.6932C10.7469 19.8855 11.66 19.4891 12.4676 19.8078L20.6779 23.0469C21.4856 23.3654 21.882 24.2785 21.5635 25.0861L11.2451 51.2404C10.9266 52.048 10.0135 52.4445 9.20587 52.1258L0.995521 48.8869C0.187904 48.5681 -0.208581 47.6553 0.110169 46.8474Z" fill="#FB4F03"/>
<path d="M21.4574 63.8766C19.777 62.4518 19.5697 59.9344 20.9945 58.2539L24.7248 53.8754C26.1496 52.1949 28.667 51.9877 30.3475 53.4125C32.0279 54.8373 32.2352 57.3547 30.8103 59.0352L27.0801 63.4137C25.6553 65.0942 23.1379 65.3014 21.4574 63.8766Z" fill="#A79274"/>
<path d="M27.543 69.0362C25.8625 67.6114 25.6553 65.094 27.0801 63.4136L30.8104 59.0351C32.2352 57.3546 34.7526 57.1474 36.433 58.5722C38.1135 59.997 38.3207 62.5144 36.8959 64.1948L33.1657 68.5733C31.7408 70.254 29.2235 70.4612 27.543 69.0362Z" fill="#A79274"/>
<path d="M33.6284 74.1963C31.948 72.7715 31.7408 70.2541 33.1656 68.5736L36.8958 64.1951C38.3206 62.5146 40.838 62.3074 42.5185 63.7322C44.199 65.157 44.4062 67.6744 42.9814 69.3549L39.2511 73.7334C37.8263 75.4141 35.3089 75.6211 33.6284 74.1963Z" fill="#A79274"/>
<path d="M39.7139 79.3563C38.0334 77.9315 37.8262 75.4141 39.251 73.7337L42.9813 69.3551C44.4061 67.6747 46.9235 67.4674 48.6039 68.8922C50.2844 70.3171 50.4916 72.8344 49.0668 74.5149L45.3365 78.8934C43.9117 80.5739 41.3944 80.7811 39.7139 79.3563Z" fill="#A79274"/>
<path d="M80.3221 26.9665L78.8676 26.1776L73.0416 28.3282C71.426 28.9247 69.6842 29.0962 67.9832 28.8267L50.8084 26.1044C48.8707 25.7972 46.9014 26.4388 45.5221 27.8341C42.6799 30.7093 37.316 35.7866 31.4469 39.5536C30.1356 40.3952 29.941 42.2448 31.0705 43.3181C33.4192 45.5497 38.2567 47.4727 46.6102 39.9702C47.3795 39.2792 48.5596 39.3077 49.2746 40.0546C51.71 42.5974 57.6969 47.4911 66.6295 45.955L80.0594 55.8663L88.4532 50.4749L88.8653 49.5688L80.3221 26.9665Z" fill="#A79274"/>
<path d="M99.8898 46.847L89.5716 20.6927C89.2531 19.885 88.34 19.4886 87.5324 19.8073L79.322 23.0464C78.5144 23.3649 78.1179 24.278 78.4365 25.0856L88.7546 51.2401C89.0732 52.0477 89.9863 52.4442 90.7939 52.1255L99.0043 48.8864C99.8121 48.5677 100.209 47.6548 99.8898 46.847Z" fill="#FCCF00"/>
</g>
<defs>
<clipPath id="clip0">
<rect width="100" height="100" fill="white"/>
</clipPath>
</defs>
</svg>
