<svg width="98" height="80" viewBox="0 0 98 80" fill="none" xmlns="http://www.w3.org/2000/svg">
<path d="M91.5168 10.0965C88.0394 5.52772 83.1271 2.26038 77.5692 0.819416C72.0113 -0.62155 66.1304 -0.152498 60.8712 2.15122C56.164 4.18256 51.9657 7.60738 48.5609 12.1523C45.1561 7.59627 40.9579 4.17144 36.2507 2.15122C30.9914 -0.152498 25.1105 -0.62155 19.5526 0.819416C13.9947 2.26038 9.08249 5.52772 5.60506 10.0965C1.93799 14.9015 0 20.9066 0 27.4607C0 36.8928 5.62507 47.2407 16.7174 58.2285C25.7562 67.1784 36.4374 74.5081 41.998 78.0796C43.9572 79.3336 46.2347 80 48.5609 80C50.8871 80 53.1646 79.3336 55.1239 78.0796C60.68 74.5081 71.3657 67.1784 80.4044 58.2285C91.4968 47.2451 97.1218 36.8928 97.1218 27.4607C97.1218 20.9066 95.1839 14.9015 91.5168 10.0965Z" fill="#FB4F03"/>
</svg>
