<svg width="100" height="100" viewBox="0 0 100 100" fill="none" xmlns="http://www.w3.org/2000/svg">
<path d="M38.1639 85.1562C38.3096 85.9564 38.2813 86.9072 38.2813 88.1053C38.2813 94.7852 43.4375 100 50 100C56.4451 100 61.7188 94.7264 61.7188 88.2812C61.7188 86.8871 61.6912 85.9525 61.8361 85.1562L50 79.2969L38.1639 85.1562Z" fill="#9DCDE8"/>
<path d="M71.0351 60.0196C65.3516 67.5196 62.1289 76.1915 61.8359 85.1564H38.1641C37.8125 76.4845 34.5898 67.8712 28.5547 59.4337C24.5117 53.8087 22.8711 46.8946 23.9258 39.9806C26.2441 24.9884 38.1289 17.7774 50 17.8243C63.0508 17.8712 76.084 26.6935 76.3633 43.588C76.4137 49.7384 74.6433 55.1884 71.0351 60.0196Z" fill="#FCCF00"/>
<path d="M50 11.9141C48.3807 11.9141 47.0703 10.6037 47.0703 8.98438V2.92969C47.0703 1.31035 48.3807 0 50 0C51.6193 0 52.9297 1.31035 52.9297 2.92969V8.98438C52.9297 10.6037 51.6193 11.9141 50 11.9141Z" fill="#FCCF00"/>
<path d="M77.9122 28.0273C77.0997 26.6254 77.5803 24.8344 78.9823 24.0248L84.0577 21.0951C85.4596 20.2826 87.2507 20.7633 88.0575 22.168C88.87 23.5699 88.3893 25.3609 86.9874 26.1705L81.912 29.1002C80.4975 29.9121 78.709 29.4176 77.9122 28.0273Z" fill="#FCCF00"/>
<path d="M11.9426 66.1132C11.1301 64.7113 11.6108 62.9202 13.0126 62.1107L18.0881 59.181C19.4842 58.3742 21.2811 58.8519 22.0879 60.2538C22.9004 61.6558 22.4198 63.4468 21.0178 64.2564L15.9422 67.1861C14.5292 67.9976 12.7401 67.5044 11.9426 66.1132Z" fill="#FCCF00"/>
<path d="M66.1133 16.2313C64.7113 15.4216 64.2307 13.6307 65.0432 12.2288L67.9728 7.15614C68.774 5.75145 70.5707 5.28504 71.9726 6.08329C73.3746 6.89305 73.8553 8.68387 73.0428 10.0858L70.1131 15.1585C69.3154 16.5542 67.5232 17.0409 66.1133 16.2313Z" fill="#FCCF00"/>
<path d="M29.8869 15.1584L26.9572 10.0858C26.1447 8.68382 26.6254 6.8928 28.0273 6.08323C29.4234 5.27639 31.2203 5.74846 32.0271 7.15608L34.9568 12.2287C35.7693 13.6307 35.2887 15.4217 33.8867 16.2313C32.4787 17.0397 30.6853 16.5557 29.8869 15.1584Z" fill="#FCCF00"/>
<path d="M84.0574 67.1861L78.982 64.2564C77.5801 63.4467 77.0994 61.6559 77.9119 60.2539C78.7188 58.8549 80.5211 58.3828 81.9117 59.181L86.9871 62.1107C88.3891 62.9205 88.8697 64.7113 88.0572 66.1133C87.2615 67.5016 85.474 67.9992 84.0574 67.1861Z" fill="#FCCF00"/>
<path d="M18.0881 29.1002L13.0126 26.1705C11.6108 25.3607 11.1301 23.5699 11.9426 22.1679C12.7495 20.766 14.5461 20.2912 15.9422 21.0951L21.0178 24.0248C22.4198 24.8345 22.9004 26.6254 22.0879 28.0273C21.2909 29.4179 19.5024 29.9121 18.0881 29.1002Z" fill="#FCCF00"/>
<path d="M91.0156 47.0703H85.1562C83.5369 47.0703 82.2266 45.76 82.2266 44.1406C82.2266 42.5213 83.5369 41.2109 85.1562 41.2109H91.0156C92.635 41.2109 93.9453 42.5213 93.9453 44.1406C93.9453 45.76 92.635 47.0703 91.0156 47.0703Z" fill="#FCCF00"/>
<path d="M14.8438 47.0703H8.98438C7.36504 47.0703 6.05469 45.76 6.05469 44.1406C6.05469 42.5213 7.36504 41.2109 8.98438 41.2109H14.8438C16.4631 41.2109 17.7734 42.5213 17.7734 44.1406C17.7734 45.76 16.4631 47.0703 14.8438 47.0703Z" fill="#FCCF00"/>
<path d="M57.9306 42.0694C56.7863 40.925 54.9322 40.925 53.7879 42.0694L50 45.8573L46.2119 42.0692C45.0676 40.9249 43.2135 40.9249 42.0691 42.0692C40.9248 43.2135 40.9248 45.0676 42.0691 46.212L47.0703 51.2131V61.7188C47.0703 63.3381 48.3806 64.6485 50 64.6485C51.6193 64.6485 52.9297 63.3381 52.9297 61.7188V51.2131L57.9306 46.2122C59.0752 45.0676 59.0752 43.2137 57.9306 42.0694Z" fill="#F4B009"/>
</svg>
