<svg width="60" height="60" viewBox="0 0 60 60" fill="none" xmlns="http://www.w3.org/2000/svg">
<g clip-path="url(#clip0)">
<path d="M43.429 19.8404C43.1529 19.0924 42.7126 18.4154 42.1404 17.8597C41.5846 17.2875 40.9081 16.8471 40.1596 16.5711C39.5526 16.3353 38.6407 16.0547 36.9612 15.9783C35.1443 15.8954 34.5996 15.8776 30 15.8776C25.3999 15.8776 24.8552 15.895 23.0388 15.9778C21.3593 16.0547 20.4469 16.3353 19.8404 16.5711C19.0919 16.8471 18.4149 17.2875 17.8596 17.8597C17.2874 18.4154 16.8471 19.092 16.5706 19.8404C16.3348 20.4474 16.0542 21.3597 15.9778 23.0393C15.8949 24.8557 15.8771 25.4004 15.8771 30.0005C15.8771 34.6001 15.8949 35.1448 15.9778 36.9617C16.0542 38.6412 16.3348 39.5531 16.5706 40.1601C16.8471 40.9085 17.287 41.5851 17.8592 42.1408C18.4149 42.713 19.0915 43.1534 19.8399 43.4294C20.4469 43.6656 21.3593 43.9463 23.0388 44.0227C24.8552 44.1056 25.3995 44.123 29.9995 44.123C34.6001 44.123 35.1448 44.1056 36.9608 44.0227C38.6403 43.9463 39.5526 43.6656 40.1596 43.4294C41.662 42.8499 42.8494 41.6625 43.429 40.1601C43.6647 39.5531 43.9453 38.6412 44.0222 36.9617C44.1051 35.1448 44.1225 34.6001 44.1225 30.0005C44.1225 25.4004 44.1051 24.8557 44.0222 23.0393C43.9458 21.3597 43.6652 20.4474 43.429 19.8404ZM30 38.8459C25.1143 38.8459 21.1537 34.8857 21.1537 30C21.1537 25.1143 25.1143 21.1542 30 21.1542C34.8853 21.1542 38.8458 25.1143 38.8458 30C38.8458 34.8857 34.8853 38.8459 30 38.8459ZM39.1956 22.8717C38.0539 22.8717 37.1283 21.9461 37.1283 20.8045C37.1283 19.6628 38.0539 18.7372 39.1956 18.7372C40.3372 18.7372 41.2628 19.6628 41.2628 20.8045C41.2624 21.9461 40.3372 22.8717 39.1956 22.8717Z" fill="white"/>
<path d="M35.7422 30C35.7422 33.1714 33.1714 35.7422 30 35.7422C26.8286 35.7422 24.2578 33.1714 24.2578 30C24.2578 26.8286 26.8286 24.2578 30 24.2578C33.1714 24.2578 35.7422 26.8286 35.7422 30Z" fill="white"/>
<path d="M55.6728 0H4.32724C1.93726 0 0 1.93726 0 4.32724V55.6728C0 58.0627 1.93726 60 4.32724 60H55.6728C58.0627 60 60 58.0627 60 55.6728V4.32724C60 1.93726 58.0627 0 55.6728 0ZM47.1227 37.1022C47.0393 38.936 46.7477 40.188 46.322 41.2839C45.4271 43.5979 43.5979 45.4271 41.2839 46.322C40.1884 46.7477 38.936 47.0389 37.1027 47.1227C35.2657 47.2064 34.6788 47.2266 30.0005 47.2266C25.3217 47.2266 24.7353 47.2064 22.8978 47.1227C21.0645 47.0389 19.812 46.7477 18.7166 46.322C17.5667 45.8894 16.5257 45.2115 15.6651 44.3349C14.789 43.4747 14.111 42.4333 13.6784 41.2839C13.2527 40.1884 12.9611 38.936 12.8778 37.1027C12.7931 35.2652 12.7734 34.6783 12.7734 30C12.7734 25.3217 12.7931 24.7348 12.8773 22.8978C12.9607 21.064 13.2518 19.812 13.6775 18.7161C14.1101 17.5667 14.7885 16.5253 15.6651 15.6651C16.5253 14.7885 17.5667 14.1106 18.7161 13.678C19.812 13.2523 21.064 12.9611 22.8978 12.8773C24.7348 12.7936 25.3217 12.7734 30 12.7734C34.6783 12.7734 35.2652 12.7936 37.1022 12.8778C38.936 12.9611 40.188 13.2523 41.2839 13.6775C42.4333 14.1101 43.4747 14.7885 44.3353 15.6651C45.2115 16.5257 45.8899 17.5667 46.322 18.7161C46.7482 19.812 47.0393 21.064 47.1231 22.8978C47.2069 24.7348 47.2266 25.3217 47.2266 30C47.2266 34.6783 47.2069 35.2652 47.1227 37.1022Z" fill="white"/>
</g>
<defs>
<clipPath id="clip0">
<rect width="60" height="60" fill="white"/>
</clipPath>
</defs>
</svg>
