<svg width="720" height="720" viewBox="0 0 720 720" fill="none" xmlns="http://www.w3.org/2000/svg">
<rect width="720" height="720" fill="#00A259"/>
<circle cx="360" cy="360" r="173.333" fill="#FCCF00"/>
<mask id="mask0" mask-type="alpha" maskUnits="userSpaceOnUse" x="0" y="0" width="720" height="720">
<rect width="720" height="720" fill="#9DCDE8"/>
</mask>
<g mask="url(#mask0)">
<path d="M573.78 349.009C562.269 351.836 553.853 362.203 554.118 374.053C554.328 383.397 548.221 389.943 520.961 374.833C514.114 371.038 505.906 370.47 498.651 373.411C452.735 392.018 409.579 416.439 369.983 444.797C355.758 454.985 348.856 472.78 353.205 489.727C357.461 506.304 352.006 512.822 325.398 505.951C310.743 502.167 295.178 506.553 284.437 517.218C245.769 555.611 212.617 597.293 186.203 639.43C180.086 649.188 180.823 661.874 188.398 670.547C199.141 682.849 208.382 701.663 181.343 714.595C175.909 717.195 170.984 717.951 166.523 717.289C154.507 715.504 142.871 722.592 138.563 733.951C116.543 792.029 109.706 846.749 121.443 890.131C129.498 919.909 151.021 946.45 180.464 952.691C244.015 966.157 302.834 950.756 356.33 917.272C365.87 911.301 371.876 900.87 371.66 889.617C371.322 871.963 387.309 870.226 399.424 871.43C408.865 872.369 418.22 868.967 425.005 862.334C454.439 833.557 481.832 799.919 507.062 763.799C515.161 752.206 514.136 736.825 505.164 725.894C490.502 708.029 499.303 684.743 531.806 689.044C544.618 690.739 557.181 684.597 563.513 673.333C588.087 629.608 609.739 585.16 628.281 543.471C631.983 535.147 630.395 525.525 624.537 518.546C609.2 500.275 627.533 492.313 640.842 489.089C648.261 487.291 654.342 482.01 657.171 474.92C689.695 393.409 706.915 334.574 706.915 334.574C661.092 333.271 616.53 338.51 573.78 349.009Z" fill="#015F4D"/>
<path d="M352.343 219.506C350.547 210.54 342.836 203.708 333.693 203.519C326.484 203.37 321.642 198.445 334.194 177.937C337.347 172.785 338.058 166.477 336.032 160.788C323.218 124.778 305.829 90.7033 285.288 59.2411C277.909 47.9383 264.422 42.0267 251.215 44.8154C238.297 47.5444 233.455 43.1233 239.635 22.8435C243.039 11.6734 240.176 -0.469747 232.313 -9.10317C204.007 -40.1837 172.982 -67.1219 141.382 -88.8819C134.064 -93.9212 124.262 -93.7751 117.325 -88.2246C107.486 -80.3534 92.6774 -73.8564 83.6089 -95.1268C81.7851 -99.4018 81.3665 -103.223 82.0248 -106.639C83.8002 -115.842 78.7238 -125.046 70.112 -128.744C26.0798 -147.647 -15.8694 -154.737 -49.6974 -147.132C-72.917 -141.914 -94.0896 -126.207 -99.8789 -103.721C-112.371 -55.1855 -102.456 -9.33771 -78.4265 33.0086C-74.1412 40.5598 -66.3008 45.5364 -57.62 45.7442C-44.0018 46.0703 -43.1943 58.4501 -44.5254 67.748C-45.5633 74.9938 -43.2519 82.3177 -38.3648 87.7675C-17.1634 111.411 7.85323 133.643 34.8542 154.291C43.5205 160.919 55.4096 160.64 64.1335 154.088C78.3906 143.381 96.0462 150.939 91.6498 175.848C89.9176 185.667 94.2337 195.554 102.706 200.81C135.59 221.203 169.129 239.37 200.645 255.048C206.938 258.178 214.407 257.274 219.982 252.991C234.574 241.777 240.101 256.172 242.144 266.538C243.282 272.316 247.151 277.178 252.522 279.595C314.266 307.373 359.042 322.602 359.042 322.602C361.57 287.327 359.013 252.806 352.343 219.506Z" fill="#015F4D"/>
</g>
</svg>
