<svg width="596" height="822" viewBox="0 0 596 822" fill="none" xmlns="http://www.w3.org/2000/svg">
<path d="M584.052 275.055C581.25 261.057 569.219 250.392 554.954 250.097C543.706 249.864 536.15 242.175 555.735 210.16C560.655 202.118 561.764 192.271 558.603 183.389C538.609 127.173 511.478 73.9783 479.428 24.8621C467.914 7.21713 446.871 -2.0116 426.264 2.34182C406.107 6.6021 398.552 -0.299783 408.195 -31.9589C413.506 -49.3967 409.039 -68.3536 396.771 -81.8314C352.605 -130.352 304.197 -172.406 254.891 -206.375C243.474 -214.242 228.18 -214.014 217.356 -205.349C202.004 -193.061 178.898 -182.919 164.749 -216.124C161.903 -222.798 161.25 -228.764 162.277 -234.097C165.047 -248.463 157.127 -262.832 143.69 -268.605C74.9867 -298.115 9.53363 -309.183 -43.248 -297.311C-79.4774 -289.164 -112.513 -264.645 -121.546 -229.541C-141.037 -153.771 -125.566 -82.1976 -88.0738 -16.09C-81.3874 -4.30157 -69.1541 3.4675 -55.6096 3.79187C-34.3612 4.30094 -33.1013 23.6272 -35.1782 38.1424C-36.7976 49.4539 -33.1912 60.8875 -25.5659 69.3952C7.51457 106.305 46.5478 141.012 88.6772 173.246C102.199 183.593 120.75 183.158 134.362 172.93C156.607 156.215 184.155 168.013 177.295 206.9C174.592 222.228 181.327 237.663 194.545 245.867C245.855 277.705 298.186 306.065 347.36 330.54C357.179 335.426 368.833 334.015 377.53 327.328C400.299 309.823 408.922 332.295 412.11 348.477C413.886 357.497 419.923 365.088 428.302 368.86C524.642 412.226 594.505 436 594.505 436C598.449 380.931 594.461 327.039 584.052 275.055Z" fill="#005141"/>
<path d="M187.5 668.637C190.244 654.627 183.185 640.182 170.11 634.473C159.799 629.971 155.744 619.983 186.053 597.847C193.666 592.287 198.444 583.606 198.907 574.19C201.845 514.597 197.035 455.077 186.123 397.453C182.202 376.751 166.265 360.199 145.554 356.371C125.295 352.628 120.941 343.367 141.921 317.773C153.477 303.675 156.572 284.446 150.366 267.31C128.025 205.619 99.2971 148.291 66.6592 98.0937C59.1012 86.469 44.8746 80.8511 31.5651 84.7371C12.6889 90.2469 -12.5381 90.8183 -12.9648 54.7262C-13.0522 47.4715 -11.3826 41.7071 -8.40048 37.1681C-0.364385 24.9422 -2.21103 8.63896 -12.4338 -1.81931C-64.7051 -55.2861 -121.001 -90.4631 -174.323 -99.6027C-210.923 -105.878 -250.81 -95.7996 -272.539 -66.7877C-319.436 -4.16444 -332.411 67.9036 -322.942 143.311C-321.253 156.758 -312.904 168.603 -300.505 174.065C-281.054 182.633 -287.255 200.981 -294.707 213.609C-300.515 223.45 -301.538 235.395 -297.731 246.167C-281.214 292.899 -258.354 339.862 -231.688 385.719C-223.13 400.438 -205.814 407.106 -189.331 402.838C-162.395 395.862 -141.422 417.268 -162.584 450.606C-170.925 463.747 -170.581 480.584 -161.487 493.207C-126.183 542.196 -88.6099 588.36 -52.475 629.728C-45.259 637.988 -33.9467 641.125 -23.3573 638.257C4.36412 630.751 3.77258 654.813 0.5524 670.989C-1.24258 680.005 1.44529 689.324 7.75493 696.005C80.2965 772.813 135.827 821.419 135.827 821.419C160.46 772.009 177.311 720.665 187.5 668.637Z" fill="#005141"/>
</svg>
