<svg width="1920" height="680" viewBox="0 0 1920 680" fill="none" xmlns="http://www.w3.org/2000/svg">
<mask id="mask0" mask-type="alpha" maskUnits="userSpaceOnUse" x="0" y="0" width="1920" height="681">
<rect y="0.000244141" width="1920" height="680" fill="#00392E"/>
</mask>
<g mask="url(#mask0)">
<path d="M1938.74 812.525C2052.82 690.704 2146.88 549.972 2217 398.114C2091.78 524.384 1963.22 654.548 1891.99 817.531C1866.95 815.862 1840.23 813.081 1815.19 811.412C1868.61 766.355 1916.48 712.955 1950.98 652.323C1886.98 662.892 1826.32 690.704 1776.23 732.424C1755.64 749.668 1736.16 770.249 1728.93 795.837C1840.23 665.117 1885.31 477.102 1855.81 308C1767.33 453.183 1709.45 616.722 1687.19 784.712C1696.65 674.573 1672.72 567.772 1625.97 467.089C1632.65 570.553 1639.33 674.573 1646 778.037C1625.97 607.266 1550.84 443.17 1433.97 316.9C1500.75 469.314 1519.12 644.535 1616.51 779.706C1561.97 662.335 1470.7 561.097 1368.3 482.108C1393.9 519.378 1403.92 564.434 1418.39 606.71C1445.66 686.254 1489.62 759.68 1546.94 821.425C1424.51 655.66 1258.11 529.946 1070 445.952C1137.34 511.034 1192.44 587.241 1253.65 657.885C1314.31 729.086 1382.77 796.393 1466.8 837L1930.39 837C1929.28 828.1 1932.62 819.2 1938.74 812.525Z" fill="#005141"/>
<path d="M81.6321 402.8C85.0276 413.915 95.6311 421.587 107.211 420.679C116.341 419.963 123.081 425.584 109.788 453.094C106.45 460.005 106.343 468.071 109.617 475.012C130.335 518.944 156.59 559.855 186.502 597.066C197.248 610.435 215.036 616.219 231.379 611.035C247.366 605.964 254.04 610.947 248.774 637.369C245.874 651.922 251.016 666.92 262.039 676.852C301.718 712.607 344.313 742.782 386.986 766.336C396.868 771.791 409.239 770.377 417.311 762.487C428.759 751.299 446.661 741.225 460.793 766.987C463.635 772.164 464.644 776.945 464.24 781.347C463.151 793.208 470.723 804.211 482.072 807.807C540.1 826.19 594.012 829.893 635.815 816.032C664.509 806.52 689.3 784.001 693.795 754.838C703.492 691.891 685.206 635.154 649.519 584.615C643.154 575.603 632.62 570.293 621.622 571.119C604.368 572.415 601.793 556.861 602.309 544.935C602.711 535.642 598.87 526.67 592.009 520.391C562.244 493.15 527.833 468.172 491.113 445.447C479.327 438.153 464.335 439.997 454.13 449.376C437.454 464.705 414.189 457.363 416.62 425.31C417.577 412.675 410.88 400.713 399.512 395.13C355.387 373.464 310.715 354.696 268.912 338.823C260.565 335.654 251.238 337.735 244.73 343.851C227.693 359.862 218.9 342.351 215.017 329.498C212.853 322.334 207.352 316.67 200.261 314.288C118.731 286.904 60.2245 273.261 60.2245 273.261C61.4573 318.189 69.021 361.525 81.6321 402.8Z" fill="#005141"/>
</g>
</svg>
