<svg width="32" height="19" viewBox="0 0 32 19" fill="none" xmlns="http://www.w3.org/2000/svg">
<path d="M32 9.84732C32 10.2072 31.8371 10.5477 31.5571 10.7736L21.6854 18.7361C21.1739 19.1488 20.4246 19.0687 20.012 18.557C19.5993 18.0453 19.6796 17.2961 20.1912 16.8836L28.9144 9.84732L20.1912 2.81103C19.6797 2.39857 19.5992 1.64942 20.012 1.13759C20.4246 0.626061 21.1739 0.54583 21.6854 0.958487L31.5571 8.92105C31.8371 9.14696 32 9.48742 32 9.84732Z" fill="white"/>
<path d="M32 9.84704C32 10.5043 31.4671 11.0371 30.8099 11.0371L1.19007 11.0371C0.532854 11.0371 7.97055e-08 10.5043 1.78013e-07 9.84704C2.76321e-07 9.18982 0.532854 8.65697 1.19007 8.65697L30.8099 8.65697C31.4671 8.65697 32 9.18983 32 9.84704Z" fill="white"/>
</svg>
