<svg width="32" height="19" viewBox="0 0 32 19" fill="none" xmlns="http://www.w3.org/2000/svg">
<path d="M3.76905e-05 9.15268C3.77085e-05 8.79278 0.16288 8.45233 0.442942 8.22641L10.3146 0.26385C10.8261 -0.148806 11.5754 -0.0686749 11.988 0.442956C12.4007 0.954686 12.3204 1.70394 11.8088 2.11639L3.08559 9.15268L11.8088 16.189C12.3203 16.6014 12.4008 17.3506 11.988 17.8624C11.5754 18.3739 10.8261 18.4542 10.3146 18.0415L0.442942 10.079C0.162879 9.85304 3.76726e-05 9.51258 3.76905e-05 9.15268Z" fill="white"/>
<path d="M1.32921e-05 9.15296C1.33249e-05 8.49574 0.532866 7.96289 1.19008 7.96289L30.8099 7.96289C31.4671 7.96289 32 8.49574 32 9.15296C32 9.81018 31.4671 10.343 30.8099 10.343L1.19008 10.343C0.532865 10.343 1.32593e-05 9.81018 1.32921e-05 9.15296Z" fill="white"/>
</svg>
