<svg width="1913" height="960" viewBox="0 0 1913 960" fill="none" xmlns="http://www.w3.org/2000/svg">
<mask id="mask0" mask-type="alpha" maskUnits="userSpaceOnUse" x="0" y="0" width="1920" height="960">
<rect width="1920" height="960" fill="#015F4D"/>
</mask>
<g mask="url(#mask0)">
<path d="M383.637 253.887C427.426 210.125 479.601 194.321 531.265 160.134C561.299 140.25 600.768 146.129 636.63 142.589C653.983 140.891 671.049 136.885 688.221 134.253C709.444 131.063 730.973 130.071 752.358 127.924C804.547 122.739 855.963 110.759 905.065 92.4031C920.266 86.7271 935.486 80.2639 947.491 69.4175C961.753 56.5808 970.549 38.6416 975.389 20.0339C980.338 1.4448 981.442 -17.7942 982.545 -37.0332C983.706 -57.279 984.977 -77.5063 986.119 -97.6423L953.922 -103.083C962.186 -69.0472 963.058 -31.404 958.331 3.26001C956.562 16.4009 953.639 29.6855 946.141 40.6159C940.316 49.0054 932.222 55.4306 923.801 61.1227C857.677 105.967 773.935 113.274 694.335 119.475C680.134 120.576 665.933 121.678 651.713 122.889C628.002 124.755 604.382 126.749 580.652 128.725C557.142 130.738 533.118 133.116 511.753 143.172C501.08 148.144 491.447 154.987 481.923 161.848C444.767 188.435 408.287 215.7 372.336 243.846C376.176 247.205 379.907 250.546 383.637 253.887Z" fill="#00A259"/>
<path d="M584.052 275.055C581.25 261.057 569.219 250.392 554.954 250.097C543.706 249.864 536.15 242.175 555.735 210.16C560.655 202.118 561.764 192.271 558.603 183.389C538.609 127.173 511.478 73.9783 479.428 24.8621C467.914 7.21713 446.871 -2.0116 426.264 2.34182C406.107 6.6021 398.552 -0.299783 408.195 -31.9589C413.506 -49.3967 409.039 -68.3536 396.771 -81.8314C352.605 -130.352 304.197 -172.406 254.891 -206.375C243.474 -214.242 228.18 -214.014 217.356 -205.349C202.004 -193.061 178.898 -182.919 164.749 -216.124C161.903 -222.798 161.25 -228.764 162.277 -234.097C165.047 -248.463 157.127 -262.832 143.69 -268.605C74.9867 -298.115 9.53363 -309.183 -43.248 -297.311C-79.4774 -289.164 -112.513 -264.645 -121.546 -229.541C-141.037 -153.771 -125.566 -82.1976 -88.0738 -16.09C-81.3874 -4.30157 -69.1541 3.4675 -55.6096 3.79187C-34.3612 4.30094 -33.1013 23.6272 -35.1782 38.1424C-36.7976 49.4539 -33.1912 60.8875 -25.5659 69.3952C7.51457 106.305 46.5478 141.012 88.6772 173.246C102.199 183.593 120.75 183.158 134.362 172.93C156.607 156.215 184.155 168.013 177.295 206.9C174.592 222.228 181.327 237.663 194.545 245.867C245.855 277.705 298.186 306.065 347.36 330.54C357.179 335.426 368.833 334.015 377.53 327.328C400.299 309.823 408.922 332.295 412.11 348.477C413.886 357.497 419.923 365.088 428.302 368.86C524.642 412.226 594.505 436 594.505 436C598.449 380.931 594.461 327.039 584.052 275.055Z" fill="#005141"/>
<path d="M187.5 668.637C190.244 654.627 183.185 640.182 170.11 634.473C159.799 629.971 155.744 619.983 186.053 597.847C193.666 592.287 198.444 583.606 198.907 574.19C201.845 514.597 197.035 455.077 186.123 397.453C182.202 376.751 166.265 360.199 145.554 356.371C125.295 352.628 120.941 343.367 141.921 317.773C153.477 303.675 156.572 284.446 150.366 267.31C128.025 205.619 99.2971 148.291 66.6592 98.0937C59.1012 86.469 44.8746 80.8511 31.5651 84.7371C12.6889 90.2469 -12.5381 90.8182 -12.9648 54.7262C-13.0522 47.4715 -11.3826 41.7071 -8.40048 37.1681C-0.364385 24.9422 -2.21105 8.63895 -12.4338 -1.81931C-64.7051 -55.2861 -121.001 -90.4631 -174.323 -99.6027C-210.923 -105.878 -250.81 -95.7996 -272.539 -66.7877C-319.436 -4.16444 -332.411 67.9036 -322.942 143.311C-321.253 156.758 -312.904 168.603 -300.505 174.065C-281.054 182.633 -287.255 200.981 -294.707 213.609C-300.515 223.45 -301.538 235.395 -297.731 246.167C-281.214 292.899 -258.354 339.862 -231.688 385.719C-223.13 400.438 -205.814 407.106 -189.331 402.838C-162.395 395.862 -141.422 417.268 -162.584 450.606C-170.925 463.747 -170.581 480.584 -161.487 493.207C-126.183 542.196 -88.6099 588.36 -52.475 629.728C-45.259 637.989 -33.9467 641.125 -23.3573 638.257C4.36414 630.751 3.77258 654.813 0.5524 670.989C-1.24259 680.005 1.44527 689.324 7.75493 696.005C80.2965 772.813 135.827 821.419 135.827 821.419C160.46 772.009 177.311 720.664 187.5 668.637Z" fill="#005141"/>
<path d="M1503.15 102.763C1486.81 5.50183 1403.31 -65.0412 1305.91 -71.9652C1296.05 -72.6983 1289.99 -61.7014 1296.22 -54.2887C1321.24 -24.8822 1336.07 12.9146 1335.65 54.0511C1334.72 146.751 1255.53 221.693 1159.64 220.715C1142.2 220.552 1125.44 217.864 1109.6 213.058C1100.16 210.207 1091.82 219.656 1096.2 228.291C1136.98 308.609 1228.56 357.402 1324.7 342.251C1442.4 323.841 1522.36 216.561 1503.15 102.763Z" fill="#FCCF00"/>
<path d="M1972.61 -404.241C1909.44 -267.989 1845.72 -131.736 1782.56 4.51645C1757.29 58.9076 1732.03 113.848 1718.29 172.085C1698.52 256.144 1704.01 344.049 1706.21 430.306C1712.25 633.586 1701.82 836.866 1676 1038.5C1744.11 1057.18 1806.18 1078.6 1876.48 1082.45C1840.23 881.917 1799.59 665.452 1763.88 465.468C1749.05 381.409 1733.67 295.152 1749.6 211.642C1764.43 134.176 1805.08 64.9511 1844.63 -3.1752C1924.27 -139.428 2003.92 -275.68 2084.11 -411.933C2041.27 -412.483 2014.9 -398.198 1972.61 -404.241Z" fill="#005141"/>
<path d="M1592.18 -398.747C1568.56 -367.431 1571.31 -335.016 1565.82 -296.008C1541.1 -123.495 1505.4 53.963 1405.43 195.71C1401.58 175.931 1398.84 158.9 1397.19 145.164C1393.89 110.552 1394.44 11.1093 1396.64 -97.673C1404.88 -107.562 1412.57 -118.001 1420.26 -128.44C1456.51 -178.436 1485.07 -231.179 1483.98 -293.261C1465.85 -237.771 1433.44 -188.874 1397.19 -142.175C1400.49 -300.404 1405.43 -461.929 1405.43 -461.929L1373.02 -535C1373.02 -535 1359.29 -425.668 1352.7 -273.483C1349.95 -214.147 1348.85 -148.768 1349.4 -80.6414C1308.21 -27.3491 1269.21 27.5915 1251.08 91.8719C1226.37 178.129 1242.3 271.528 1277.45 354.488C1312.6 436.899 1365.33 510.519 1418.06 583.041C1418.06 581.393 1418.61 579.744 1419.16 578.096C1423.56 606.116 1427.4 634.135 1430.15 664.353C1446.08 818.186 1421.91 1012.68 1421.91 1012.68L1510.89 1020.92C1510.89 1020.92 1543.3 753.906 1510.89 607.764C1487.82 502.828 1443.33 356.136 1417.51 248.453C1493.31 167.141 1536.16 57.8088 1560.87 -50.4241C1585.59 -165.25 1589.44 -282.273 1592.18 -398.747ZM1258.77 217.686C1254.93 187.469 1251.08 147.911 1258.77 118.793C1268.11 83.6309 1279.65 42.9749 1302.17 14.4058C1317.55 -5.37286 1334.02 -24.0526 1350.5 -43.2818C1351.6 2.86823 1353.8 49.5677 1357.64 96.2672C1373.57 297.899 1392.8 412.725 1408.72 511.069C1333.47 419.867 1274.15 333.611 1258.77 217.686Z" fill="#005141"/>
<path d="M1967.95 451.719C1906.12 526.189 1827.22 558.341 1751.76 619.04C1707.9 654.344 1645.63 650.896 1590.34 661.593C1563.58 666.746 1537.61 675.45 1511.26 682.032C1478.7 690.067 1445.34 694.725 1412.38 701.159C1331.92 716.778 1253.64 742.865 1179.88 778.546C1157.05 789.581 1134.3 801.845 1117.19 820.469C1096.85 842.519 1085.75 871.723 1080.9 901.396C1075.88 931.056 1076.94 961.171 1078 991.287C1079.12 1022.98 1080.06 1054.66 1081.19 1086.18L1132.08 1089.99C1114.3 1038.19 1107.51 979.705 1109.87 925.048C1110.72 904.331 1113.35 883.223 1123.44 865.12C1131.3 851.215 1142.96 840.04 1155.25 829.96C1251.67 750.575 1380.92 727.089 1503.88 705.926C1525.82 702.158 1547.76 698.39 1569.71 694.448C1606.34 688.114 1642.81 681.594 1679.45 675.086C1715.74 668.553 1752.78 661.377 1784.57 642.631C1800.46 633.345 1814.46 621.298 1828.29 609.238C1882.27 562.47 1935.1 514.741 1986.98 465.719C1980.52 461.044 1974.23 456.381 1967.95 451.719Z" fill="#00A259"/>
<path d="M-37.1335 78.6401C0.62048 192.443 38.9025 306.773 97.7777 411.334C156.653 515.895 237.969 610.687 344.103 666.136C461.589 727.658 598.613 736.371 731.148 742.972C800.847 746.405 870.547 749.309 940.247 747.461C1322.8 737.163 1698.76 569.76 1962.77 292.251C1948.52 280.633 1940.07 263.734 1934.26 246.307C1788.26 399.98 1611.63 533.586 1421.28 626.529C1382.73 645.276 1343.66 663.231 1302.47 674.849C1174.96 711.287 1039.52 708.911 906.981 712.871C781.838 716.304 656.168 723.169 532.345 706.006C480.334 698.877 429.908 683.563 380.273 666.928C365.752 661.911 350.703 656.63 339.351 646.069C329.318 636.563 323.246 623.361 313.477 613.063C298.956 597.749 278.099 590.884 259.354 581.378C193.351 548.373 151.373 482.098 116.787 416.879C52.1032 294.363 2.9966 163.662 -29.2131 29C-32.1173 49.5954 -30.5332 58.8369 -37.1335 78.6401Z" fill="#00A259"/>
</g>
</svg>
