<svg width="647" height="460" viewBox="0 0 647 460" fill="none" xmlns="http://www.w3.org/2000/svg">
<g filter="url(#filter0_d)">
<rect x="30" y="20" width="587" height="400" rx="16" fill="#005141"/>
</g>
<circle cx="82" cy="72" r="12" fill="#FB4F03"/>
<circle cx="126" cy="72" r="12" fill="#FCCF00"/>
<circle cx="170" cy="72" r="12" fill="#00A259"/>
<rect x="70" y="124" width="129" height="260" rx="10" fill="#00392E"/>
<rect x="219" y="124" width="174" height="160" rx="10" fill="#00392E"/>
<g clip-path="url(#clip0)">
<path d="M329.033 188.23H341.155V243H329.033V188.23Z" fill="#015F4D"/>
<path d="M309.637 197.929H321.759V243H309.637V197.929Z" fill="#015F4D"/>
<path d="M290.241 210.051H302.363V243H290.241V210.051Z" fill="#015F4D"/>
<path d="M270.845 223.386H282.967V243H270.845V223.386Z" fill="#015F4D"/>
<path d="M335.676 167.063L333.684 179.44L330.096 178.858L331.045 172.991L275.136 207.577L273.221 204.473L329.396 169.729L322.971 168.588L323.553 165L335.676 167.063Z" fill="#00A259"/>
</g>
<rect x="413" y="124" width="174" height="160" rx="10" fill="#00392E"/>
<rect x="219" y="304" width="368" height="80" rx="10" fill="#00392E"/>
<rect x="239" y="331" width="80" height="8" fill="#00A259"/>
<rect x="239" y="349" width="50" height="8" fill="#00A259"/>
<rect x="80" y="144" width="80" height="8" fill="#00A259"/>
<rect x="423" y="144" width="80" height="8" fill="#00A259"/>
<rect x="423" y="244" width="154" height="20" fill="#015F4D"/>
<rect x="357" y="314" width="60" height="60" fill="#015F4D"/>
<rect x="437" y="314" width="60" height="60" fill="#015F4D"/>
<rect x="517" y="314" width="60" height="60" fill="#015F4D"/>
<rect x="80" y="162" width="50" height="8" fill="#00A259"/>
<rect x="423" y="162" width="50" height="8" fill="#00A259"/>
<defs>
<filter id="filter0_d" x="0" y="0" width="647" height="460" filterUnits="userSpaceOnUse" color-interpolation-filters="sRGB">
<feFlood flood-opacity="0" result="BackgroundImageFix"/>
<feColorMatrix in="SourceAlpha" type="matrix" values="0 0 0 0 0 0 0 0 0 0 0 0 0 0 0 0 0 0 127 0"/>
<feOffset dy="10"/>
<feGaussianBlur stdDeviation="15"/>
<feColorMatrix type="matrix" values="0 0 0 0 0.0666667 0 0 0 0 0.0666667 0 0 0 0 0.0666667 0 0 0 0.2 0"/>
<feBlend mode="normal" in2="BackgroundImageFix" result="effect1_dropShadow"/>
<feBlend mode="normal" in="SourceGraphic" in2="effect1_dropShadow" result="shape"/>
</filter>
<clipPath id="clip0">
<rect width="78" height="78" fill="white" transform="translate(267 165)"/>
</clipPath>
</defs>
</svg>
