<svg width="240" height="240" viewBox="0 0 240 240" fill="none" xmlns="http://www.w3.org/2000/svg">
<rect x="0.00012207" width="240" height="240" fill="#FFA4BA"/>
<path d="M120 92.4947V113.184C119.989 116.988 116.907 120.07 113.103 120.081H95.8622C92.0582 120.07 88.9775 116.988 88.9653 113.184V89.0462C88.7867 85.3368 90.1814 81.7235 92.809 79.0959C95.435 76.4699 99.0483 75.0737 102.759 75.2538C107.335 75.24 111.728 77.0513 114.965 80.2876C118.201 83.524 120.014 87.9186 120 92.4947Z" fill="#FF7092"/>
<path d="M88.9653 92.1146V109.735C88.9546 113.539 85.8738 116.622 82.0698 116.632H68.2759C64.4719 116.622 61.3911 113.539 61.3789 109.735V89.0461C61.2202 85.7441 62.4623 82.529 64.7999 80.1914C67.1376 77.8537 70.3526 76.6117 73.6546 76.7704C77.7226 76.7688 81.6227 78.3878 84.4945 81.2656C87.3677 84.1449 88.976 88.0481 88.9653 92.1146Z" fill="#FF7092"/>
<path d="M61.3789 91.7362V106.288C61.3682 110.092 58.2875 113.173 54.4835 113.184H44.138C40.334 113.173 37.2532 110.092 37.241 106.288V89.046C37.1037 86.1621 38.1901 83.3545 40.2318 81.3129C42.2734 79.2712 45.081 78.1848 47.9649 78.3222C55.3731 78.3267 61.3759 84.3295 61.3789 91.7362Z" fill="#FF7092"/>
<path d="M37.241 91.9769V104.494C37.3112 105.406 36.6352 106.206 35.7243 106.288H30.3456C26.5416 106.276 23.4593 103.195 23.4486 99.3911V90.184C23.2533 88.4094 23.8026 86.6348 24.9669 85.2813C26.1296 83.9279 27.8035 83.1191 29.5857 83.0459C31.6914 83.0703 33.675 84.0316 34.9995 85.6674C36.4674 87.4404 37.2609 89.6758 37.241 91.9769Z" fill="#FF7092"/>
<path d="M151.035 89.0462V113.184C151.023 116.988 147.942 120.07 144.138 120.081H126.897C123.093 120.07 120.011 116.988 120 113.184V92.4947C119.986 87.9186 121.799 83.524 125.036 80.2876C128.272 77.0513 132.665 75.24 137.241 75.2538C140.952 75.0737 144.565 76.4699 147.191 79.0959C149.819 81.7235 151.213 85.3368 151.035 89.0462Z" fill="#FF7092"/>
<path d="M178.621 89.0461V109.735C178.609 113.539 175.528 116.622 171.724 116.632H157.93C154.126 116.622 151.046 113.539 151.035 109.735V92.1146C151.024 88.0481 152.633 84.1449 155.506 81.2656C158.378 78.3878 162.278 76.7688 166.346 76.7704C169.648 76.6117 172.863 77.8537 175.2 80.1914C177.538 82.529 178.78 85.7441 178.621 89.0461Z" fill="#FF7092"/>
<path d="M202.759 89.046V106.288C202.747 110.092 199.666 113.173 195.862 113.184H185.517C181.713 113.173 178.632 110.092 178.621 106.288V91.7362C178.624 84.3295 184.627 78.3267 192.035 78.3222C194.919 78.1848 197.727 79.2712 199.768 81.3129C201.81 83.3545 202.897 86.1621 202.759 89.046Z" fill="#FF7092"/>
<path d="M216.552 90.184V99.3911C216.541 103.195 213.459 106.276 209.655 106.288H204.276C203.365 106.206 202.689 105.406 202.759 104.494V91.9769C202.739 89.6758 203.533 87.4404 205.001 85.6674C206.325 84.0316 208.309 83.0703 210.415 83.0459C212.197 83.1191 213.871 83.9279 215.033 85.2813C216.198 86.6348 216.747 88.4094 216.552 90.184Z" fill="#FF7092"/>
<path d="M120 95.943V113.184C119.989 116.988 116.907 120.07 113.103 120.081H95.8623C92.0582 120.07 88.9775 116.988 88.9653 113.184V92.1145C88.8737 88.4631 90.3111 84.9399 92.9295 82.3932C95.5479 79.8465 99.1109 78.5083 102.759 78.7021C107.335 78.6883 111.728 80.4995 114.965 83.7359C118.201 86.9723 120.014 91.3653 120 95.943Z" fill="white"/>
<path d="M88.9653 95.5631V109.735C88.9546 113.539 85.8738 116.622 82.0698 116.632H68.2759C64.4719 116.622 61.3911 113.539 61.3789 109.735V92.4946C61.2202 89.1926 62.4623 85.976 64.7999 83.6384C67.1376 81.3007 70.3526 80.0586 73.6546 80.2189C77.7226 80.2173 81.6227 81.8348 84.4945 84.7141C87.3677 87.5934 88.976 91.4966 88.9653 95.5631Z" fill="white"/>
<path d="M61.3789 95.1844V106.288C61.3682 110.092 58.2875 113.173 54.4835 113.184H44.138C40.334 113.173 37.2532 110.092 37.241 106.288V92.4943C37.1037 89.6104 38.1901 86.8028 40.2318 84.7596C42.2734 82.718 45.081 81.6331 47.9649 81.7704C55.3731 81.7735 61.3759 87.7778 61.3789 95.1844Z" fill="#F3F3F3"/>
<path d="M37.241 95.4261V104.494C37.3112 105.407 36.6352 106.206 35.7243 106.289H30.3456C26.5416 106.277 23.4593 103.196 23.4486 99.3918V93.6332C23.2533 91.8586 23.8026 90.084 24.9669 88.7305C26.1296 87.3771 27.8035 86.5668 29.5857 86.4951C31.6914 86.5195 33.675 87.4808 34.9995 89.1151C36.4674 90.8896 37.2609 93.1235 37.241 95.4261Z" fill="#F3F3F3"/>
<path d="M151.035 92.1145V113.184C151.023 116.988 147.942 120.07 144.138 120.081H126.897C123.093 120.07 120.011 116.988 120 113.184V95.943C119.986 91.3653 121.799 86.9723 125.036 83.7359C128.272 80.4995 132.665 78.6883 137.241 78.7021C140.889 78.5083 144.452 79.8465 147.071 82.3932C149.689 84.9399 151.127 88.4631 151.035 92.1145Z" fill="white"/>
<path d="M178.621 92.4946V109.735C178.609 113.539 175.528 116.622 171.724 116.632H157.93C154.126 116.622 151.046 113.539 151.035 109.735V95.5631C151.024 91.4966 152.633 87.5934 155.506 84.7141C158.378 81.8348 162.278 80.2173 166.346 80.2189C169.648 80.0586 172.863 81.3007 175.2 83.6384C177.538 85.976 178.78 89.1926 178.621 92.4946Z" fill="white"/>
<path d="M202.759 92.4943V106.288C202.747 110.092 199.666 113.173 195.862 113.184H185.517C181.713 113.173 178.632 110.092 178.621 106.288V95.1844C178.624 87.7778 184.627 81.7735 192.035 81.7704C194.919 81.6331 197.727 82.718 199.768 84.7596C201.81 86.8028 202.897 89.6104 202.759 92.4943Z" fill="#F3F3F3"/>
<path d="M216.552 93.6332V99.3918C216.541 103.196 213.459 106.277 209.655 106.289H204.276C203.365 106.206 202.689 105.407 202.759 104.494V95.4261C202.739 93.1235 203.533 90.8896 205.001 89.1151C206.325 87.4808 208.309 86.5195 210.415 86.4951C212.197 86.5668 213.871 87.3771 215.033 88.7305C216.198 90.084 216.747 91.8586 216.552 93.6332Z" fill="#F3F3F3"/>
<path d="M120 145.046V158.356C120.003 162.775 118.248 167.013 115.125 170.138C112.001 173.261 107.763 175.014 103.345 175.013H102.759C92.4138 175.013 88.9653 170.53 88.9653 165.012V145.046C88.9653 139.524 93.4422 135.047 98.9659 135.047H110C115.523 135.047 120 139.524 120 145.046Z" fill="#FF7092"/>
<path d="M88.9653 141.598V155.287C88.9668 159.211 87.4089 162.974 84.6333 165.748C81.8593 168.522 78.0964 170.082 74.1719 170.08H73.6546C70.4152 170.302 67.2322 169.143 64.893 166.89C62.5554 164.636 61.2782 161.499 61.3789 158.253V141.598C61.3621 139.009 62.3662 136.519 64.1728 134.666C66.0557 132.702 68.6589 131.595 71.3795 131.598H78.9662C84.4884 131.598 88.9653 136.075 88.9653 141.598Z" fill="#FF7092"/>
<path d="M61.3789 154.184V157.632C58.9528 160.304 55.5058 161.821 51.8971 161.804H51.4134C48.5829 161.993 45.8027 160.979 43.7596 159.007C41.718 157.037 40.6025 154.297 40.6895 151.46V148.012C40.6025 150.848 41.718 153.589 43.7596 155.559C45.8027 157.53 48.5829 158.545 51.4134 158.356H51.8971C55.5058 158.372 58.9528 156.856 61.3789 154.184Z" fill="#FF7092"/>
<path d="M40.6895 135.668V139.874C40.7155 142.177 39.9205 144.414 38.448 146.184C37.1235 147.82 35.1399 148.779 33.0342 148.805C30.9758 148.888 29.044 147.809 28.0339 146.012C27.2709 144.693 26.8773 143.192 26.8971 141.667V135.668C26.8986 131.992 29.8771 129.013 33.5515 129.012H34.0352C37.7095 129.013 40.688 131.992 40.6895 135.668Z" fill="#FF7092"/>
<path d="M151.035 145.046V165.012C151.035 170.53 147.587 175.013 137.241 175.013H136.655C132.238 175.014 127.999 173.261 124.875 170.138C121.752 167.013 119.997 162.775 120 158.356V145.046C120 139.524 124.477 135.047 130.001 135.047H141.034C146.558 135.047 151.035 139.524 151.035 145.046Z" fill="#FF7092"/>
<path d="M178.621 141.598V158.253C178.722 161.499 177.445 164.636 175.107 166.89C172.768 169.143 169.585 170.302 166.346 170.08H165.828C161.904 170.082 158.141 168.522 155.367 165.748C152.591 162.974 151.033 159.211 151.035 155.287V141.598C151.035 136.075 155.512 131.598 161.034 131.598H168.621C171.341 131.595 173.945 132.702 175.827 134.666C177.634 136.519 178.638 139.009 178.621 141.598Z" fill="#FF7092"/>
<path d="M199.311 148.012V151.46C199.398 154.297 198.282 157.037 196.241 159.007C194.198 160.979 191.417 161.993 188.587 161.804H188.103C184.494 161.821 181.048 160.304 178.621 157.632V154.184C181.048 156.856 184.494 158.372 188.103 158.356H188.587C191.417 158.545 194.198 157.53 196.241 155.559C198.282 153.589 199.398 150.848 199.311 148.012Z" fill="#FF7092"/>
<path d="M213.103 135.668V141.667C213.123 143.192 212.729 144.693 211.966 146.012C210.956 147.809 209.024 148.888 206.966 148.805C204.86 148.779 202.877 147.82 201.552 146.184C200.08 144.414 199.285 142.177 199.311 139.874V135.668C199.312 131.992 202.291 129.013 205.965 129.012H206.449C210.123 129.013 213.102 131.992 213.103 135.668Z" fill="#FF7092"/>
<path d="M120 145.046V154.909C120.003 159.327 118.248 163.564 115.125 166.689C112.001 169.812 107.763 171.567 103.345 171.564H102.759C92.4138 171.564 88.9653 167.081 88.9653 161.564V145.046C88.9653 139.524 93.4422 135.047 98.9659 135.047H110C115.523 135.047 120 139.524 120 145.046Z" fill="white"/>
<path d="M88.9652 141.599V151.839C88.9668 155.764 87.4088 159.527 84.6333 162.301C81.8592 165.075 78.0964 166.634 74.1719 166.633H73.6546C70.4151 166.854 67.2322 165.696 64.893 163.442C62.5553 161.188 61.2782 158.051 61.3789 154.806V141.599C61.3621 139.01 62.3661 136.52 64.1728 134.667C66.0557 132.703 68.6589 131.596 71.3795 131.599H78.9662C84.4883 131.599 88.9652 136.076 88.9652 141.599Z" fill="white"/>
<path d="M64.1728 134.666C62.3661 136.519 61.3621 139.009 61.3789 141.599V154.184C58.9527 156.856 55.5058 158.373 51.8971 158.356H51.4134C48.5829 158.545 45.8027 157.53 43.7596 155.559C41.7179 153.589 40.6025 150.848 40.6895 148.012V138.15C40.6895 132.626 45.1664 128.149 50.6901 128.149H54.8283C58.1394 128.152 61.2324 129.808 63.0695 132.564C63.538 133.208 63.9088 133.916 64.1728 134.666Z" fill="#F3F3F3"/>
<path d="M40.6895 135.668V136.426C40.7155 138.729 39.9205 140.965 38.448 142.735C37.1235 144.371 35.1399 145.331 33.0342 145.357C30.9758 145.439 29.044 144.361 28.0339 142.563C27.2709 141.245 26.8773 139.743 26.8971 138.219V135.668C26.8986 131.992 29.8771 129.013 33.5515 129.012H34.0352C37.7095 129.013 40.688 131.992 40.6895 135.668Z" fill="#F3F3F3"/>
<path d="M151.035 145.046V161.564C151.035 167.081 147.586 171.564 137.241 171.564H136.655C132.238 171.567 127.999 169.812 124.875 166.689C121.752 163.564 119.997 159.327 120 154.909V145.046C120 139.524 124.477 135.047 130.001 135.047H141.034C146.558 135.047 151.035 139.524 151.035 145.046Z" fill="white"/>
<path d="M178.621 141.599V154.806C178.722 158.051 177.445 161.188 175.107 163.442C172.768 165.696 169.585 166.854 166.346 166.633H165.828C161.904 166.634 158.141 165.075 155.367 162.301C152.591 159.527 151.033 155.764 151.035 151.839V141.599C151.035 136.076 155.512 131.599 161.034 131.599H168.621C171.341 131.596 173.945 132.703 175.827 134.667C177.634 136.52 178.638 139.01 178.621 141.599Z" fill="white"/>
<path d="M199.311 138.15V148.012C199.398 150.848 198.282 153.589 196.241 155.559C194.198 157.53 191.417 158.545 188.587 158.356H188.103C184.494 158.373 181.047 156.856 178.621 154.184V141.599C178.638 139.009 177.634 136.519 175.827 134.666C176.091 133.916 176.462 133.208 176.931 132.564C178.768 129.808 181.861 128.152 185.172 128.149H189.31C191.962 128.149 194.506 129.204 196.381 131.079C198.256 132.954 199.311 135.498 199.311 138.15Z" fill="#F3F3F3"/>
<path d="M213.103 135.668V138.219C213.123 139.743 212.729 141.245 211.966 142.563C210.956 144.361 209.024 145.439 206.966 145.357C204.86 145.331 202.877 144.371 201.552 142.735C200.08 140.965 199.285 138.729 199.311 136.426V135.668C199.312 131.992 202.291 129.013 205.965 129.012H206.449C210.123 129.013 213.102 131.992 213.103 135.668Z" fill="#F3F3F3"/>
</svg>
