<svg width="240" height="240" viewBox="0 0 240 240" fill="none" xmlns="http://www.w3.org/2000/svg">
<rect x="0.00012207" width="240" height="240" fill="#005141"/>
<path d="M127.5 190C93.6726 190 66.2501 158.66 66.2501 120C66.2501 81.34 93.6726 50 127.5 50C161.328 50 188.75 81.34 188.75 120C188.75 158.66 161.328 190 127.5 190Z" fill="#FCCF00"/>
<path d="M66.2501 120C66.2501 84.245 89.7126 54.77 120 50.54C117.54 50.1975 115.04 50 112.5 50C78.6726 50 51.2501 81.34 51.2501 120C51.2501 158.66 78.6726 190 112.5 190C115.04 190 117.54 189.803 120 189.46C89.7126 185.23 66.2501 155.755 66.2501 120Z" fill="#F4BF1A"/>
<path d="M127.713 176.31H127.498C125.748 176.31 123.985 176.205 122.26 176C120.888 175.835 119.91 174.593 120.073 173.22C120.238 171.848 121.49 170.89 122.853 171.035C124.383 171.218 125.945 171.31 127.498 171.31C128.88 171.31 130.105 172.43 130.105 173.81C130.105 175.19 129.098 176.31 127.713 176.31ZM142.25 173.618C141.24 173.618 140.288 173 139.91 171.998C139.423 170.705 140.075 169.263 141.368 168.778C142.808 168.235 144.245 167.598 145.633 166.885C146.863 166.25 148.368 166.738 149 167.968C149.63 169.195 149.145 170.703 147.915 171.333C146.358 172.133 144.75 172.843 143.13 173.455C142.843 173.565 142.545 173.618 142.25 173.618ZM108.413 171.708C108.033 171.708 107.645 171.62 107.283 171.435C105.745 170.653 104.223 169.775 102.76 168.815C101.605 168.06 101.283 166.513 102.038 165.355C102.798 164.203 104.343 163.878 105.5 164.633C106.808 165.49 108.17 166.28 109.545 166.978C110.775 167.603 111.268 169.108 110.643 170.338C110.203 171.208 109.323 171.708 108.413 171.708ZM158.688 162.813C158.053 162.813 157.415 162.57 156.928 162.088C155.948 161.115 155.94 159.533 156.913 158.553C158 157.458 159.058 156.278 160.055 155.048C160.928 153.978 162.503 153.815 163.573 154.685C164.643 155.555 164.808 157.13 163.935 158.203C162.833 159.558 161.665 160.86 160.463 162.073C159.973 162.565 159.328 162.813 158.688 162.813ZM93.1426 159.293C92.4201 159.293 91.7026 158.98 91.2076 158.38C90.1226 157.055 89.0801 155.655 88.1126 154.218C87.3401 153.073 87.6426 151.518 88.7876 150.745C89.9301 149.973 91.4851 150.273 92.2576 151.42C93.1401 152.73 94.0876 154.005 95.0751 155.208C95.9501 156.275 95.7951 157.85 94.7276 158.728C94.2651 159.108 93.7001 159.293 93.1426 159.293ZM169.678 146.45C169.343 146.45 169.005 146.383 168.68 146.243C167.413 145.69 166.835 144.218 167.385 142.95C168.013 141.515 168.585 140.025 169.088 138.528C169.528 137.223 170.945 136.515 172.255 136.955C173.563 137.398 174.268 138.813 173.828 140.123C173.278 141.755 172.653 143.38 171.97 144.948C171.558 145.888 170.638 146.45 169.678 146.45ZM83.6126 142.033C82.5726 142.033 81.6001 141.375 81.2451 140.338C80.6926 138.718 80.2026 137.05 79.7876 135.38C79.4526 134.04 80.2676 132.685 81.6076 132.353C82.9426 132.013 84.3051 132.833 84.6376 134.173C85.0201 135.705 85.4701 137.238 85.9776 138.723C86.4226 140.03 85.7251 141.45 84.4201 141.895C84.1551 141.988 83.8801 142.033 83.6126 142.033ZM174.4 127.29C174.335 127.29 174.27 127.288 174.205 127.283C172.828 127.175 171.8 125.973 171.905 124.595C172.023 123.08 172.083 121.533 172.083 120C172.083 118.62 173.203 117.42 174.583 117.42C175.963 117.42 177.083 118.458 177.083 119.838V120C177.083 121.663 177.018 123.338 176.89 124.983C176.79 126.293 175.693 127.29 174.4 127.29ZM80.4151 122.528C79.0351 122.528 77.9151 121.435 77.9151 120.055V120C77.9151 118.295 77.9826 116.58 78.1151 114.908C78.2251 113.533 79.4226 112.513 80.8051 112.613C82.1826 112.723 83.2101 113.928 83.1001 115.303C82.9776 116.848 82.9151 118.428 82.9151 120C82.9151 121.38 81.7951 122.528 80.4151 122.528ZM172.755 107.62C171.638 107.62 170.62 106.865 170.335 105.733C169.948 104.195 169.495 102.665 168.985 101.18C168.538 99.8754 169.235 98.4529 170.54 98.0054C171.848 97.5529 173.27 98.2529 173.715 99.5604C174.27 101.175 174.763 102.84 175.183 104.508C175.52 105.848 174.708 107.205 173.37 107.543C173.168 107.598 172.963 107.62 172.755 107.62ZM83.5801 103.078C83.3126 103.078 83.0426 103.033 82.7751 102.943C81.4676 102.5 80.7676 101.08 81.2101 99.7729C81.7626 98.1479 82.3901 96.5254 83.0776 94.9529C83.6326 93.6854 85.1026 93.1129 86.3701 93.6629C87.6351 94.2154 88.2126 95.6904 87.6601 96.9554C87.0276 98.3979 86.4526 99.8879 85.9476 101.378C85.5901 102.42 84.6226 103.078 83.5801 103.078ZM164.755 89.5954C163.953 89.5954 163.168 89.2104 162.683 88.4954C161.798 87.1904 160.848 85.9179 159.858 84.7154C158.98 83.6504 159.133 82.0729 160.198 81.1954C161.263 80.3179 162.84 80.4704 163.718 81.5354C164.805 82.8579 165.85 84.2554 166.823 85.6929C167.598 86.8354 167.298 88.3904 166.155 89.1654C165.725 89.4554 165.24 89.5954 164.755 89.5954ZM93.0701 85.7929C92.5151 85.7929 91.9551 85.6079 91.4901 85.2279C90.4201 84.3554 90.2626 82.7804 91.1376 81.7104C92.2401 80.3604 93.4101 79.0604 94.6151 77.8479C95.5901 76.8729 97.1726 76.8654 98.1501 77.8379C99.1301 78.8129 99.1351 80.3929 98.1626 81.3729C97.0726 82.4704 96.0101 83.6479 95.0076 84.8754C94.5176 85.4804 93.7976 85.7929 93.0701 85.7929ZM150.775 75.7179C150.308 75.7179 149.835 75.5879 149.415 75.3129C148.108 74.4604 146.743 73.6754 145.36 72.9779C144.13 72.3554 143.635 70.8529 144.258 69.6204C144.88 68.3929 146.38 67.8904 147.615 68.5154C149.16 69.2929 150.683 70.1704 152.143 71.1229C153.3 71.8779 153.628 73.4279 152.873 74.5829C152.393 75.3204 151.595 75.7179 150.775 75.7179ZM108.323 73.3429C107.413 73.3429 106.535 72.8454 106.093 71.9779C105.465 70.7479 105.955 69.2429 107.185 68.6154C108.743 67.8229 110.353 67.1104 111.975 66.5054C113.265 66.0204 114.708 66.6754 115.193 67.9704C115.675 69.2629 115.02 70.7029 113.725 71.1879C112.28 71.7279 110.843 72.3604 109.453 73.0704C109.093 73.2554 108.703 73.3429 108.323 73.3429ZM132.338 68.9704C132.24 68.9704 132.143 68.9654 132.045 68.9529C130.54 68.7779 129.01 68.6904 127.498 68.6904C126.118 68.6904 124.945 67.5704 124.945 66.1904C124.945 64.8104 126.013 63.6904 127.393 63.6904H127.498C129.203 63.6904 130.928 63.7904 132.623 63.9879C133.993 64.1454 134.978 65.3854 134.818 66.7579C134.673 68.0329 133.588 68.9704 132.338 68.9704Z" fill="#F4BF1A"/>
<path d="M66.2451 122.5H51.2501C51.3001 124.182 51.3951 125.85 51.5476 127.5H66.5551C66.4001 125.85 66.2976 124.182 66.2451 122.5Z" fill="#DCA815"/>
<path d="M66.8176 110H51.8276C51.6201 111.647 51.4701 113.317 51.3676 115H66.3651C66.4701 113.317 66.6101 111.647 66.8176 110Z" fill="#DCA815"/>
<path d="M67.6201 135H52.6176C52.9426 136.69 53.3176 138.358 53.7451 140H68.7426C68.3176 138.358 67.9451 136.69 67.6201 135Z" fill="#DCA815"/>
<path d="M71.1176 147.5H56.1076C56.7451 149.205 57.4501 150.868 58.2001 152.5H73.2026C72.4526 150.87 71.7551 149.202 71.1176 147.5Z" fill="#DCA815"/>
<path d="M69.4301 97.5H54.4476C53.9601 99.1425 53.5051 100.805 53.1251 102.5H68.1426C68.5226 100.81 68.9451 99.1375 69.4301 97.5Z" fill="#DCA815"/>
<path d="M74.4101 85H59.4101C58.5851 86.6275 57.8076 88.2925 57.0976 90H72.1076C72.8176 88.295 73.5851 86.6275 74.4101 85Z" fill="#DCA815"/>
<path d="M84.6126 70H69.5951C68.1726 71.59 66.8201 73.2575 65.5401 75H80.5526C81.8351 73.2575 83.1901 71.59 84.6126 70Z" fill="#DCA815"/>
<path d="M99.9001 57.5H84.8676C82.3126 58.975 79.8626 60.645 77.5276 62.5H92.5501C94.8876 60.645 97.3426 58.975 99.9001 57.5Z" fill="#DCA815"/>
<path d="M78.7976 162.5H63.7901C64.9501 164.233 66.1751 165.9 67.4701 167.5H82.4876C81.1926 165.9 79.9601 164.233 78.7976 162.5Z" fill="#DCA815"/>
<path d="M74.5801 175C76.5876 176.807 78.6901 178.485 80.8901 180H95.9251C93.7151 178.482 91.5901 176.815 89.5751 175H74.5801Z" fill="#DCA815"/>
</svg>
