<svg width="240" height="240" viewBox="0 0 240 240" fill="none" xmlns="http://www.w3.org/2000/svg">
<rect width="240" height="240" fill="#1366EA"/>
<g clip-path="url(#clip0)">
<path d="M188.74 110.858C187.117 122.46 183.221 133.4 177.16 143.374C171.432 152.798 163.913 161.147 154.811 168.187C128.334 188.671 93.4749 193.928 68.5445 187.292C68.2087 187.201 67.8787 187.111 67.5484 187.015C61.2787 185.221 56.1015 182.495 52.1454 178.912L50.6387 177.546L51.2171 168.097L51.8211 158.252C55.18 157.905 59.4442 157.558 67.5484 155.837C79.0038 153.436 97.3976 148.349 113.328 138.394C125.246 130.948 133.895 121.961 139.035 111.68L139.092 111.575C140.426 109.075 144.08 101.528 144.916 96.6772C145.841 91.3104 149.038 83.1393 153.874 77.88C155.502 76.1081 157.534 74.7535 159.814 73.9072V50H181.164V75.521C189.208 83.7769 190.337 99.4422 188.74 110.858Z" fill="#FCCF00"/>
<path d="M67.5484 155.837V187.015C61.2787 185.221 56.1015 182.495 52.1454 178.912L50.6387 177.546L51.2171 168.097L51.8211 158.252C55.18 157.905 59.444 157.558 67.5484 155.837Z" fill="#424449"/>
</g>
<defs>
<clipPath id="clip0">
<rect width="140" height="140" fill="white" transform="translate(50 50)"/>
</clipPath>
</defs>
</svg>
