<svg width="1920" height="1300" viewBox="0 0 1920 1300" fill="none" xmlns="http://www.w3.org/2000/svg">
<mask id="mask0" mask-type="alpha" maskUnits="userSpaceOnUse" x="0" y="0" width="1920" height="1300">
<rect width="1920" height="1300" fill="#015F4D"/>
</mask>
<g mask="url(#mask0)">
<path d="M1681.87 1026.84C1671.61 1032.29 1666.1 1044.16 1669.19 1055.35C1671.63 1064.18 1667.39 1071.86 1637.86 1064.05C1630.44 1062.09 1622.5 1063.52 1616.31 1068.05C1577.12 1096.75 1541.96 1130.32 1511.12 1166.76C1500.04 1179.86 1497.75 1198.42 1505.95 1213.48C1513.97 1228.21 1510.35 1235.71 1483.4 1235.57C1468.57 1235.49 1454.82 1243.4 1447.17 1256.11C1419.62 1301.87 1398.1 1349.43 1383.1 1395.8C1379.63 1406.54 1383.37 1418.42 1392.65 1424.84C1405.81 1433.95 1419.11 1449.61 1396.51 1468.38C1391.97 1472.16 1387.47 1474.06 1383.07 1474.5C1371.22 1475.69 1361.86 1485.22 1360.49 1497.04C1353.48 1557.51 1360.11 1611.14 1381.67 1649.54C1396.47 1675.9 1423.3 1695.95 1452.78 1694.81C1516.43 1692.35 1568.65 1663.6 1611.47 1618.95C1619.1 1610.98 1622.31 1599.63 1619.41 1588.99C1614.85 1572.3 1629.63 1566.81 1641.44 1565.05C1650.64 1563.67 1658.71 1558.2 1663.57 1550.27C1684.65 1515.86 1702.62 1477.32 1717.94 1436.95C1722.86 1423.99 1718.2 1409.62 1707.05 1401.39C1688.82 1387.94 1691.6 1363.7 1723.53 1359.99C1736.12 1358.52 1746.59 1349.67 1749.91 1337.45C1762.78 1290 1772.7 1242.58 1780.33 1198.52C1781.85 1189.72 1778.03 1180.96 1770.79 1175.73C1751.83 1162.06 1767.34 1150.09 1779.22 1143.83C1785.84 1140.34 1790.36 1133.87 1791.35 1126.45C1802.71 1041.2 1804.97 981.166 1804.97 981.166C1761.1 990.927 1719.99 1006.6 1681.87 1026.84Z" fill="#015F4D"/>
<path d="M1256.57 -139.115C1267.4 -90.0256 1280.96 -42.0808 1297.81 4.86408C1314.67 51.8089 1333.39 98.6127 1360.59 140.836C1367.17 151.033 1375.04 160.945 1383.78 169.853C1392.52 178.761 1401.54 186.522 1410.43 194.856C1428.48 210.378 1445.95 225.755 1466.16 239.988C1507.15 266.159 1556.62 280.431 1601.48 305.746C1623.98 318.116 1645.33 332.638 1668.27 340.847C1680.03 345.024 1692.22 347.48 1703.26 349.647C1714.88 351.959 1725.92 354.126 1737.25 355.146C1760.49 357.329 1784.59 353.631 1809.85 350.221C1834.52 346.666 1859.49 341.965 1884.03 336.545C1896.37 333.548 1908.57 331.125 1920.62 326.836C1932.54 323.121 1944.59 318.833 1956.08 314.4C1979.61 305.678 2003.72 299.54 2027.55 292.111C2075.19 277.251 2121.7 259.664 2167.2 238.775L2173.64 249.546C2131.85 279.91 2084.77 302.232 2036.97 320.104C2024.92 324.393 2012.86 328.682 2000.8 332.97C1988.32 336.541 1976.41 340.256 1963.64 342.535C1950.87 344.813 1938.67 347.236 1925.9 349.515C1919.58 350.368 1913.13 351.794 1907.24 353.365C1900.79 354.791 1894.9 356.361 1888.59 357.214L1814.26 373.903C1789.72 379.323 1763.46 384.31 1736.06 384.13C1722.58 384.399 1708.09 381.366 1695.76 377.044C1682.86 372.579 1671.25 365.389 1660.07 358.916C1637.57 346.546 1614.92 334.749 1591.69 325.247C1545.67 306.962 1498.07 290.11 1451.2 265.51C1439.31 259.467 1427.55 252.851 1416.66 245.231C1405.92 237.037 1396.03 227.84 1387.58 217.785C1379.13 207.729 1371.69 196.096 1365.4 184.751L1345.79 151.148C1319.75 106.774 1295.72 61.6845 1277.86 13.8774C1259.86 -35.7953 1248.17 -86.3206 1243.95 -137.41L1256.57 -139.115Z" fill="#00A259"/>
<path d="M322.902 -34.4622C322.902 -34.4622 253.105 237.662 232.446 331.403C219.534 389.992 181.773 446.53 155.942 480.145C154.211 455.678 152.48 431.21 149.578 406.484C137.696 299.899 65.6532 -4.05655 30.1154 -99.1558C7.77293 -159.39 22.8481 -9.33664 4.52828 -75.5633C147.118 651.706 82.2726 1326.01 82.2726 1326.01C110.1 1320.12 150.457 1418.99 178.285 1413.09C152.284 1184.44 162.92 848.615 160.852 618.367C182.649 584.107 218.06 522.625 244.601 445.666C286.29 325.605 338.542 -16.2606 338.542 -16.2606L322.902 -34.4622Z" fill="#015F4D"/>
<path d="M536.806 -16.0184C475.514 116.048 413.689 248.115 352.397 380.182C327.88 432.902 303.363 486.155 290.039 542.603C270.852 624.079 276.182 709.284 278.314 792.89C284.176 989.925 274.05 1186.96 249 1382.4C315.089 1400.5 375.315 1421.27 443.536 1425C408.359 1230.63 368.919 1020.81 334.276 826.972C319.886 745.495 304.962 661.889 320.419 580.945C334.809 505.858 374.249 438.76 412.623 372.726C489.904 241.192 567.186 109.125 645 -22.9413C603.428 -24.0063 577.845 -10.1606 536.806 -16.0184Z" fill="#015F4D"/>
</g>
</svg>
