<svg width="120" height="120" viewBox="0 0 120 120" fill="none" xmlns="http://www.w3.org/2000/svg">
<g clip-path="url(#clip0)">
<path d="M120 77.5781H77.3438V74.0625C77.3438 56.6162 63.1494 42.4219 45.7031 42.4219C28.2568 42.4219 14.0625 56.6162 14.0625 74.0625V77.5781H0V74.0625C0 58.0362 6.24115 42.9684 17.5735 31.636C28.9059 20.3036 43.9737 14.0625 60 14.0625C76.0263 14.0625 91.0941 20.3036 102.426 31.636C113.759 42.9684 120 58.0362 120 74.0625V77.5781Z" fill="#FB4F03"/>
<path d="M102.426 31.636C91.0941 20.3036 76.0263 14.0625 60 14.0625C43.9737 14.0625 28.9059 20.3036 17.5735 31.636C16.7404 32.4683 15.9393 33.3243 15.1611 34.1959L28.4912 47.5259C33.4488 44.2996 39.3604 42.4219 45.7031 42.4219C60.2225 42.4219 72.4878 52.2537 76.1948 65.6094L119.942 71.499C119.313 56.4349 113.153 42.3624 102.426 31.636Z" fill="#FCCF00"/>
<path d="M77.3438 74.0625V77.5781H120V74.0625C120 58.0362 113.759 42.9684 102.426 31.636C91.0941 20.3036 76.0263 14.0625 60 14.0625V45.8414C70.2823 51.0718 77.3438 61.7578 77.3438 74.0625Z" fill="#00A259"/>
<path d="M105.044 31.6406L51.0782 80.8777C49.1034 82.6794 49.032 85.7648 50.9226 87.6544L64.1016 100.833C65.994 102.727 69.0857 102.653 70.8856 100.67L120 46.593V31.6406H105.044Z" fill="#9DCDE8"/>
<path d="M59.9991 105.822C56.2427 105.822 52.7106 104.359 50.0546 101.703C44.5724 96.2202 44.5724 87.2983 50.0546 81.8152C52.7106 79.1593 56.2427 77.6963 59.9991 77.6963C63.7546 77.6963 67.2867 79.1593 69.9426 81.8152C75.4257 87.2983 75.4257 96.2192 69.9426 101.703C67.2867 104.359 63.7546 105.822 59.9991 105.822Z" fill="#1366EA"/>
</g>
<defs>
<clipPath id="clip0">
<rect width="120" height="120" fill="white"/>
</clipPath>
</defs>
</svg>
