<svg width="60" height="60" viewBox="0 0 60 60" fill="none" xmlns="http://www.w3.org/2000/svg">
<path d="M42.0442 21.2556L26.8294 33.692L26.1135 34.2784C25.9563 34.403 25.8536 34.5839 25.8272 34.7829L25.6669 36.1056L25.2272 39.8215C25.2312 39.8667 25.2172 39.9117 25.1881 39.9466C25.159 39.9814 25.1173 40.0033 25.0721 40.0073C25.0269 40.0114 24.9819 39.9973 24.947 39.9683C24.9122 39.9392 24.8903 39.8974 24.8863 39.8522L23.6488 36.1363L22.3704 32.3352C22.3158 32.1648 22.3228 31.9808 22.3901 31.815C22.4574 31.6493 22.5807 31.5125 22.7385 31.4284L38.5703 22.3533L41.5499 20.6488C41.9828 20.3965 42.426 20.942 42.0442 21.2556Z" fill="white"/>
<path d="M51.8182 0H8.18182C6.01187 0 3.93079 0.86201 2.3964 2.3964C0.86201 3.93079 0 6.01187 0 8.18182L0 51.8182C0 53.9881 0.86201 56.0692 2.3964 57.6036C3.93079 59.138 6.01187 60 8.18182 60H51.8182C53.9881 60 56.0692 59.138 57.6036 57.6036C59.138 56.0692 60 53.9881 60 51.8182V8.18182C60 6.01187 59.138 3.93079 57.6036 2.3964C56.0692 0.86201 53.9881 0 51.8182 0V0ZM48.7125 17.3659L42.8557 43.2443C42.5795 44.458 41.0386 45.0068 39.958 44.267L31.1148 38.267L26.6114 42.525C26.4277 42.6973 26.2048 42.8222 25.962 42.8889C25.7192 42.9555 25.4637 42.9619 25.2179 42.9075C24.972 42.8531 24.7431 42.7395 24.5511 42.5766C24.3591 42.4137 24.2097 42.2064 24.1159 41.9727L22.4898 37.2L20.8636 32.4273L12.1466 30.0409C11.9029 29.9877 11.6835 29.8555 11.5227 29.6647C11.3619 29.474 11.2686 29.2355 11.2573 28.9863C11.2461 28.7371 11.3174 28.4911 11.4604 28.2867C11.6033 28.0822 11.8098 27.9307 12.0477 27.8557L45.7227 15.7227L46.3432 15.5011C47.6489 15.0443 48.9989 16.1011 48.7125 17.3659Z" fill="white"/>
</svg>
