<svg width="60" height="60" viewBox="0 0 60 60" fill="none" xmlns="http://www.w3.org/2000/svg">
<g clip-path="url(#clip0)">
<path d="M55.6728 0H4.32724C1.93726 0 0 1.93726 0 4.32724V55.6728C0 58.0627 1.93726 60 4.32724 60H55.6728C58.0627 60 60 58.0627 60 55.6728V4.32724C60 1.93726 58.0627 0 55.6728 0V0ZM43.6977 23.3908C43.7109 23.6861 43.7173 23.9827 43.7173 24.2807C43.7173 33.3797 36.7914 43.8721 24.1255 43.8725H24.126H24.1255C20.2368 43.8725 16.6182 42.7327 13.5709 40.7794C14.1096 40.843 14.6581 40.8746 15.2133 40.8746C18.4396 40.8746 21.4087 39.7742 23.7657 37.9271C20.7513 37.8712 18.2098 35.8804 17.3328 33.1444C17.7525 33.2249 18.1842 33.2689 18.6269 33.2689C19.2554 33.2689 19.8642 33.1842 20.4428 33.0263C17.292 32.3955 14.9185 29.6109 14.9185 26.2766C14.9185 26.2454 14.9185 26.2175 14.9194 26.1887C15.8473 26.7046 16.9084 27.0149 18.0382 27.0497C16.1893 25.816 14.9739 23.7071 14.9739 21.3181C14.9739 20.0565 15.3149 18.8745 15.9064 17.8569C19.3021 22.0235 24.3768 24.7636 30.0998 25.0516C29.9817 24.5471 29.9208 24.0216 29.9208 23.4814C29.9208 19.6802 33.0048 16.5962 36.8074 16.5962C38.7881 16.5962 40.5771 17.4335 41.8336 18.772C43.4024 18.4625 44.8755 17.8894 46.2062 17.1007C45.6912 18.7079 44.5999 20.0565 43.1781 20.9093C44.5711 20.7426 45.8986 20.3732 47.1323 19.8248C46.2108 21.2059 45.0421 22.419 43.6977 23.3908Z" fill="white"/>
</g>
<defs>
<clipPath id="clip0">
<rect width="60" height="60" fill="white"/>
</clipPath>
</defs>
</svg>
